<mxfile host="app.diagrams.net" modified="2021-10-18T06:19:59.696Z" agent="5.0 (Macintosh; Intel Mac OS X 10_14_6) AppleWebKit/537.36 (KHTML, like Gecko) Chrome/80.0.3987.149 Safari/537.36" etag="LtkWb6zFuWlvKknJj2XV" version="15.5.2" type="github">
  <diagram id="C5RBs43oDa-KdzZeNtuy" name="Page-1">
    <mxGraphModel dx="2404" dy="1077" grid="1" gridSize="10" guides="1" tooltips="1" connect="1" arrows="1" fold="1" page="1" pageScale="1" pageWidth="827" pageHeight="1169" math="0" shadow="0">
      <root>
        <mxCell id="WIyWlLk6GJQsqaUBKTNV-0" />
        <mxCell id="WIyWlLk6GJQsqaUBKTNV-1" parent="WIyWlLk6GJQsqaUBKTNV-0" />
        <mxCell id="PJY2y0bwhQxhffVgpyWu-1" value="" style="shape=table;childLayout=tableLayout;rowLines=0;columnLines=0;startSize=40;collapsible=0;recursiveResize=0;expand=0;pointerEvents=0;fontStyle=1;align=center;" vertex="1" parent="WIyWlLk6GJQsqaUBKTNV-1">
          <mxGeometry x="-770" y="30" width="1540" height="790.0000000000002" as="geometry" />
        </mxCell>
        <mxCell id="PJY2y0bwhQxhffVgpyWu-2" value="业务" style="swimlane;horizontal=0;points=[[0,0.5],[1,0.5]];portConstraint=eastwest;startSize=40;collapsible=0;recursiveResize=0;expand=0;pointerEvents=0;fontStyle=1" vertex="1" parent="PJY2y0bwhQxhffVgpyWu-1">
          <mxGeometry y="40" width="1540" height="180" as="geometry" />
        </mxCell>
        <mxCell id="PJY2y0bwhQxhffVgpyWu-3" value="T-5 至 T-1" style="swimlane;connectable=0;startSize=40;collapsible=0;recursiveResize=0;expand=0;pointerEvents=0;" vertex="1" parent="PJY2y0bwhQxhffVgpyWu-2">
          <mxGeometry x="40" width="502" height="180" as="geometry">
            <mxRectangle width="502" height="180" as="alternateBounds" />
          </mxGeometry>
        </mxCell>
        <mxCell id="PJY2y0bwhQxhffVgpyWu-4" value="T" style="swimlane;connectable=0;startSize=40;collapsible=0;recursiveResize=0;expand=0;pointerEvents=0;" vertex="1" parent="PJY2y0bwhQxhffVgpyWu-2">
          <mxGeometry x="542" width="496" height="180" as="geometry">
            <mxRectangle width="496" height="180" as="alternateBounds" />
          </mxGeometry>
        </mxCell>
        <mxCell id="PJY2y0bwhQxhffVgpyWu-30" value="创建实验" style="rounded=0;whiteSpace=wrap;html=1;" vertex="1" parent="PJY2y0bwhQxhffVgpyWu-4">
          <mxGeometry x="278" y="84.5" width="120" height="60" as="geometry" />
        </mxCell>
        <mxCell id="PJY2y0bwhQxhffVgpyWu-5" value="T+1 " style="swimlane;connectable=0;startSize=40;collapsible=0;recursiveResize=0;expand=0;pointerEvents=0;" vertex="1" parent="PJY2y0bwhQxhffVgpyWu-2">
          <mxGeometry x="1038" width="502" height="180" as="geometry">
            <mxRectangle width="502" height="180" as="alternateBounds" />
          </mxGeometry>
        </mxCell>
        <mxCell id="PJY2y0bwhQxhffVgpyWu-100" value="" style="edgeStyle=orthogonalEdgeStyle;rounded=0;orthogonalLoop=1;jettySize=auto;html=1;" edge="1" parent="PJY2y0bwhQxhffVgpyWu-5" source="PJY2y0bwhQxhffVgpyWu-96" target="PJY2y0bwhQxhffVgpyWu-99">
          <mxGeometry relative="1" as="geometry" />
        </mxCell>
        <mxCell id="PJY2y0bwhQxhffVgpyWu-96" value="可以使用的sid" style="whiteSpace=wrap;html=1;rounded=0;" vertex="1" parent="PJY2y0bwhQxhffVgpyWu-5">
          <mxGeometry x="42" y="84.5" width="120" height="60" as="geometry" />
        </mxCell>
        <mxCell id="PJY2y0bwhQxhffVgpyWu-99" value="实验效果开关" style="whiteSpace=wrap;html=1;rounded=0;" vertex="1" parent="PJY2y0bwhQxhffVgpyWu-5">
          <mxGeometry x="242" y="84.5" width="120" height="60" as="geometry" />
        </mxCell>
        <mxCell id="PJY2y0bwhQxhffVgpyWu-97" value="" style="edgeStyle=orthogonalEdgeStyle;rounded=0;orthogonalLoop=1;jettySize=auto;html=1;" edge="1" parent="PJY2y0bwhQxhffVgpyWu-2" source="PJY2y0bwhQxhffVgpyWu-30" target="PJY2y0bwhQxhffVgpyWu-96">
          <mxGeometry relative="1" as="geometry" />
        </mxCell>
        <mxCell id="PJY2y0bwhQxhffVgpyWu-6" value="平台" style="swimlane;horizontal=0;points=[[0,0.5],[1,0.5]];portConstraint=eastwest;startSize=40;collapsible=0;recursiveResize=0;expand=0;pointerEvents=0;" vertex="1" parent="PJY2y0bwhQxhffVgpyWu-1">
          <mxGeometry y="220" width="1540" height="231" as="geometry" />
        </mxCell>
        <mxCell id="PJY2y0bwhQxhffVgpyWu-7" value="" style="swimlane;connectable=0;startSize=0;collapsible=0;recursiveResize=0;expand=0;pointerEvents=0;" vertex="1" parent="PJY2y0bwhQxhffVgpyWu-6">
          <mxGeometry x="40" width="502" height="231" as="geometry">
            <mxRectangle width="502" height="231" as="alternateBounds" />
          </mxGeometry>
        </mxCell>
        <mxCell id="PJY2y0bwhQxhffVgpyWu-20" value="T-5&lt;br&gt;salt" style="rounded=0;whiteSpace=wrap;html=1;" vertex="1" parent="PJY2y0bwhQxhffVgpyWu-7">
          <mxGeometry x="63" y="64" width="120" height="60" as="geometry" />
        </mxCell>
        <mxCell id="PJY2y0bwhQxhffVgpyWu-31" value="T-4" style="text;html=1;strokeColor=none;fillColor=none;align=center;verticalAlign=middle;whiteSpace=wrap;rounded=0;" vertex="1" parent="PJY2y0bwhQxhffVgpyWu-7">
          <mxGeometry x="93" y="21" width="60" height="30" as="geometry" />
        </mxCell>
        <mxCell id="PJY2y0bwhQxhffVgpyWu-8" value="" style="swimlane;connectable=0;startSize=0;collapsible=0;recursiveResize=0;expand=0;pointerEvents=0;" vertex="1" parent="PJY2y0bwhQxhffVgpyWu-6">
          <mxGeometry x="542" width="496" height="231" as="geometry">
            <mxRectangle width="496" height="231" as="alternateBounds" />
          </mxGeometry>
        </mxCell>
        <mxCell id="PJY2y0bwhQxhffVgpyWu-32" value="实验id&lt;br&gt;limit message&lt;br&gt;groupid - hashid" style="rounded=0;whiteSpace=wrap;html=1;" vertex="1" parent="PJY2y0bwhQxhffVgpyWu-8">
          <mxGeometry x="278" y="66" width="120" height="60" as="geometry" />
        </mxCell>
        <mxCell id="PJY2y0bwhQxhffVgpyWu-9" value="" style="swimlane;connectable=0;startSize=0;collapsible=0;recursiveResize=0;expand=0;pointerEvents=0;" vertex="1" parent="PJY2y0bwhQxhffVgpyWu-6">
          <mxGeometry x="1038" width="502" height="231" as="geometry">
            <mxRectangle width="502" height="231" as="alternateBounds" />
          </mxGeometry>
        </mxCell>
        <mxCell id="PJY2y0bwhQxhffVgpyWu-44" value="&lt;span&gt;实验id&lt;/span&gt;&lt;br&gt;&lt;span&gt;groupid&lt;br&gt;true or false&lt;br&gt;&lt;/span&gt;" style="whiteSpace=wrap;html=1;rounded=0;" vertex="1" parent="PJY2y0bwhQxhffVgpyWu-9">
          <mxGeometry x="42" y="63" width="120" height="60" as="geometry" />
        </mxCell>
        <mxCell id="PJY2y0bwhQxhffVgpyWu-101" value="下发sid" style="whiteSpace=wrap;html=1;rounded=0;" vertex="1" parent="PJY2y0bwhQxhffVgpyWu-9">
          <mxGeometry x="242" y="63" width="120" height="60" as="geometry" />
        </mxCell>
        <mxCell id="PJY2y0bwhQxhffVgpyWu-108" value="有效sid" style="text;html=1;strokeColor=none;fillColor=none;align=center;verticalAlign=middle;whiteSpace=wrap;rounded=0;" vertex="1" parent="PJY2y0bwhQxhffVgpyWu-9">
          <mxGeometry x="312" y="190" width="80" height="30" as="geometry" />
        </mxCell>
        <mxCell id="PJY2y0bwhQxhffVgpyWu-109" value="有效sid" style="text;html=1;strokeColor=none;fillColor=none;align=center;verticalAlign=middle;whiteSpace=wrap;rounded=0;" vertex="1" parent="PJY2y0bwhQxhffVgpyWu-9">
          <mxGeometry x="392" y="50" width="80" height="30" as="geometry" />
        </mxCell>
        <mxCell id="PJY2y0bwhQxhffVgpyWu-10" value="UBS" style="swimlane;horizontal=0;points=[[0,0.5],[1,0.5]];portConstraint=eastwest;startSize=40;collapsible=0;recursiveResize=0;expand=0;pointerEvents=0;" vertex="1" parent="PJY2y0bwhQxhffVgpyWu-1">
          <mxGeometry y="451" width="1540" height="339" as="geometry" />
        </mxCell>
        <mxCell id="PJY2y0bwhQxhffVgpyWu-11" value="" style="swimlane;connectable=0;startSize=0;collapsible=0;recursiveResize=0;expand=0;pointerEvents=0;" vertex="1" parent="PJY2y0bwhQxhffVgpyWu-10">
          <mxGeometry x="40" width="502" height="339" as="geometry">
            <mxRectangle width="502" height="339" as="alternateBounds" />
          </mxGeometry>
        </mxCell>
        <mxCell id="PJY2y0bwhQxhffVgpyWu-21" value="T-5&lt;br&gt;cuid_salt_hash_id" style="rounded=0;whiteSpace=wrap;html=1;" vertex="1" parent="PJY2y0bwhQxhffVgpyWu-11">
          <mxGeometry x="63" y="36" width="120" height="60" as="geometry" />
        </mxCell>
        <mxCell id="PJY2y0bwhQxhffVgpyWu-12" value="" style="swimlane;connectable=0;startSize=0;collapsible=0;recursiveResize=0;expand=0;pointerEvents=0;" vertex="1" parent="PJY2y0bwhQxhffVgpyWu-10">
          <mxGeometry x="542" width="496" height="339" as="geometry">
            <mxRectangle width="496" height="339" as="alternateBounds" />
          </mxGeometry>
        </mxCell>
        <mxCell id="PJY2y0bwhQxhffVgpyWu-23" value="T-1&lt;br&gt;salt" style="rounded=0;whiteSpace=wrap;html=1;" vertex="1" parent="PJY2y0bwhQxhffVgpyWu-12">
          <mxGeometry x="48" y="-168" width="120" height="60" as="geometry" />
        </mxCell>
        <mxCell id="PJY2y0bwhQxhffVgpyWu-24" value="T-1&lt;br&gt;cuid_salt_hash_id" style="rounded=0;whiteSpace=wrap;html=1;" vertex="1" parent="PJY2y0bwhQxhffVgpyWu-12">
          <mxGeometry x="48" y="36" width="120" height="60" as="geometry" />
        </mxCell>
        <mxCell id="PJY2y0bwhQxhffVgpyWu-25" value="" style="edgeStyle=orthogonalEdgeStyle;rounded=0;orthogonalLoop=1;jettySize=auto;html=1;" edge="1" parent="PJY2y0bwhQxhffVgpyWu-12" source="PJY2y0bwhQxhffVgpyWu-23" target="PJY2y0bwhQxhffVgpyWu-24">
          <mxGeometry relative="1" as="geometry" />
        </mxCell>
        <mxCell id="PJY2y0bwhQxhffVgpyWu-34" value="实验id&lt;br&gt;groupid&lt;br&gt;cuid" style="rounded=0;whiteSpace=wrap;html=1;" vertex="1" parent="PJY2y0bwhQxhffVgpyWu-12">
          <mxGeometry x="278" y="36" width="120" height="60" as="geometry" />
        </mxCell>
        <mxCell id="PJY2y0bwhQxhffVgpyWu-13" value="" style="swimlane;connectable=0;startSize=0;collapsible=0;recursiveResize=0;expand=0;pointerEvents=0;" vertex="1" parent="PJY2y0bwhQxhffVgpyWu-10">
          <mxGeometry x="1038" width="502" height="339" as="geometry">
            <mxRectangle width="502" height="339" as="alternateBounds" />
          </mxGeometry>
        </mxCell>
        <mxCell id="PJY2y0bwhQxhffVgpyWu-110" style="edgeStyle=orthogonalEdgeStyle;rounded=0;orthogonalLoop=1;jettySize=auto;html=1;exitX=1;exitY=0.5;exitDx=0;exitDy=0;" edge="1" parent="PJY2y0bwhQxhffVgpyWu-13" source="PJY2y0bwhQxhffVgpyWu-39" target="PJY2y0bwhQxhffVgpyWu-106">
          <mxGeometry relative="1" as="geometry" />
        </mxCell>
        <mxCell id="PJY2y0bwhQxhffVgpyWu-39" value="实验id&lt;br&gt;groupid&lt;br&gt;T-5 至 T-1指标" style="whiteSpace=wrap;html=1;rounded=0;" vertex="1" parent="PJY2y0bwhQxhffVgpyWu-13">
          <mxGeometry x="42" y="36" width="120" height="60" as="geometry" />
        </mxCell>
        <mxCell id="PJY2y0bwhQxhffVgpyWu-106" value="平台获取 有效sid&lt;br&gt;T-5 至 T-1指标" style="whiteSpace=wrap;html=1;rounded=0;" vertex="1" parent="PJY2y0bwhQxhffVgpyWu-13">
          <mxGeometry x="242" y="36" width="120" height="60" as="geometry" />
        </mxCell>
        <mxCell id="PJY2y0bwhQxhffVgpyWu-29" value="" style="endArrow=none;dashed=1;html=1;dashPattern=1 3;strokeWidth=2;rounded=0;exitX=0;exitY=0.5;exitDx=0;exitDy=0;entryX=1;entryY=0.5;entryDx=0;entryDy=0;" edge="1" parent="PJY2y0bwhQxhffVgpyWu-10" source="PJY2y0bwhQxhffVgpyWu-24" target="PJY2y0bwhQxhffVgpyWu-21">
          <mxGeometry width="50" height="50" relative="1" as="geometry">
            <mxPoint x="350" y="66" as="sourcePoint" />
            <mxPoint x="230" y="66" as="targetPoint" />
          </mxGeometry>
        </mxCell>
        <mxCell id="PJY2y0bwhQxhffVgpyWu-40" value="" style="edgeStyle=orthogonalEdgeStyle;rounded=0;orthogonalLoop=1;jettySize=auto;html=1;" edge="1" parent="PJY2y0bwhQxhffVgpyWu-10" source="PJY2y0bwhQxhffVgpyWu-34" target="PJY2y0bwhQxhffVgpyWu-39">
          <mxGeometry relative="1" as="geometry" />
        </mxCell>
        <mxCell id="PJY2y0bwhQxhffVgpyWu-41" style="edgeStyle=orthogonalEdgeStyle;rounded=0;orthogonalLoop=1;jettySize=auto;html=1;exitX=0.5;exitY=1;exitDx=0;exitDy=0;entryX=0.5;entryY=1;entryDx=0;entryDy=0;" edge="1" parent="PJY2y0bwhQxhffVgpyWu-10" source="PJY2y0bwhQxhffVgpyWu-21" target="PJY2y0bwhQxhffVgpyWu-39">
          <mxGeometry relative="1" as="geometry">
            <Array as="points">
              <mxPoint x="163" y="259" />
              <mxPoint x="1140" y="259" />
            </Array>
          </mxGeometry>
        </mxCell>
        <mxCell id="PJY2y0bwhQxhffVgpyWu-22" value="" style="edgeStyle=orthogonalEdgeStyle;rounded=0;orthogonalLoop=1;jettySize=auto;html=1;" edge="1" parent="PJY2y0bwhQxhffVgpyWu-1" source="PJY2y0bwhQxhffVgpyWu-20" target="PJY2y0bwhQxhffVgpyWu-21">
          <mxGeometry relative="1" as="geometry" />
        </mxCell>
        <mxCell id="PJY2y0bwhQxhffVgpyWu-26" value="" style="endArrow=none;dashed=1;html=1;dashPattern=1 3;strokeWidth=2;rounded=0;entryX=1;entryY=0.5;entryDx=0;entryDy=0;exitX=0;exitY=0.5;exitDx=0;exitDy=0;" edge="1" parent="PJY2y0bwhQxhffVgpyWu-1" source="PJY2y0bwhQxhffVgpyWu-23" target="PJY2y0bwhQxhffVgpyWu-20">
          <mxGeometry width="50" height="50" relative="1" as="geometry">
            <mxPoint x="470" y="383" as="sourcePoint" />
            <mxPoint x="520" y="333" as="targetPoint" />
          </mxGeometry>
        </mxCell>
        <mxCell id="PJY2y0bwhQxhffVgpyWu-33" value="" style="edgeStyle=orthogonalEdgeStyle;rounded=0;orthogonalLoop=1;jettySize=auto;html=1;" edge="1" parent="PJY2y0bwhQxhffVgpyWu-1" source="PJY2y0bwhQxhffVgpyWu-30" target="PJY2y0bwhQxhffVgpyWu-32">
          <mxGeometry relative="1" as="geometry" />
        </mxCell>
        <mxCell id="PJY2y0bwhQxhffVgpyWu-35" value="" style="edgeStyle=orthogonalEdgeStyle;rounded=0;orthogonalLoop=1;jettySize=auto;html=1;" edge="1" parent="PJY2y0bwhQxhffVgpyWu-1" source="PJY2y0bwhQxhffVgpyWu-32" target="PJY2y0bwhQxhffVgpyWu-34">
          <mxGeometry relative="1" as="geometry" />
        </mxCell>
        <mxCell id="PJY2y0bwhQxhffVgpyWu-45" value="" style="edgeStyle=orthogonalEdgeStyle;rounded=0;orthogonalLoop=1;jettySize=auto;html=1;" edge="1" parent="PJY2y0bwhQxhffVgpyWu-1" source="PJY2y0bwhQxhffVgpyWu-39" target="PJY2y0bwhQxhffVgpyWu-44">
          <mxGeometry relative="1" as="geometry" />
        </mxCell>
        <mxCell id="PJY2y0bwhQxhffVgpyWu-98" style="edgeStyle=orthogonalEdgeStyle;rounded=0;orthogonalLoop=1;jettySize=auto;html=1;exitX=0.5;exitY=0;exitDx=0;exitDy=0;entryX=0.5;entryY=1;entryDx=0;entryDy=0;" edge="1" parent="PJY2y0bwhQxhffVgpyWu-1" source="PJY2y0bwhQxhffVgpyWu-44" target="PJY2y0bwhQxhffVgpyWu-96">
          <mxGeometry relative="1" as="geometry" />
        </mxCell>
        <mxCell id="PJY2y0bwhQxhffVgpyWu-102" value="" style="edgeStyle=orthogonalEdgeStyle;rounded=0;orthogonalLoop=1;jettySize=auto;html=1;" edge="1" parent="PJY2y0bwhQxhffVgpyWu-1" source="PJY2y0bwhQxhffVgpyWu-99" target="PJY2y0bwhQxhffVgpyWu-101">
          <mxGeometry relative="1" as="geometry" />
        </mxCell>
        <mxCell id="PJY2y0bwhQxhffVgpyWu-107" value="" style="edgeStyle=orthogonalEdgeStyle;rounded=0;orthogonalLoop=1;jettySize=auto;html=1;" edge="1" parent="PJY2y0bwhQxhffVgpyWu-1" source="PJY2y0bwhQxhffVgpyWu-101" target="PJY2y0bwhQxhffVgpyWu-106">
          <mxGeometry relative="1" as="geometry" />
        </mxCell>
        <mxCell id="PJY2y0bwhQxhffVgpyWu-43" style="edgeStyle=orthogonalEdgeStyle;rounded=0;orthogonalLoop=1;jettySize=auto;html=1;exitX=0.5;exitY=1;exitDx=0;exitDy=0;" edge="1" parent="WIyWlLk6GJQsqaUBKTNV-1" source="PJY2y0bwhQxhffVgpyWu-24">
          <mxGeometry relative="1" as="geometry">
            <mxPoint x="370" y="577" as="targetPoint" />
            <Array as="points">
              <mxPoint x="-120" y="740" />
              <mxPoint x="370" y="740" />
            </Array>
          </mxGeometry>
        </mxCell>
        <mxCell id="PJY2y0bwhQxhffVgpyWu-115" style="edgeStyle=orthogonalEdgeStyle;rounded=0;orthogonalLoop=1;jettySize=auto;html=1;" edge="1" parent="WIyWlLk6GJQsqaUBKTNV-1" source="PJY2y0bwhQxhffVgpyWu-103" target="PJY2y0bwhQxhffVgpyWu-111">
          <mxGeometry relative="1" as="geometry" />
        </mxCell>
        <mxCell id="PJY2y0bwhQxhffVgpyWu-103" value="实验期第一天sid下发入库" style="whiteSpace=wrap;html=1;rounded=0;" vertex="1" parent="WIyWlLk6GJQsqaUBKTNV-1">
          <mxGeometry x="860" y="313" width="120" height="60" as="geometry" />
        </mxCell>
        <mxCell id="PJY2y0bwhQxhffVgpyWu-104" value="" style="edgeStyle=orthogonalEdgeStyle;rounded=0;orthogonalLoop=1;jettySize=auto;html=1;" edge="1" parent="WIyWlLk6GJQsqaUBKTNV-1" source="PJY2y0bwhQxhffVgpyWu-101" target="PJY2y0bwhQxhffVgpyWu-103">
          <mxGeometry relative="1" as="geometry" />
        </mxCell>
        <mxCell id="PJY2y0bwhQxhffVgpyWu-105" value="实验期第一天" style="text;html=1;strokeColor=none;fillColor=none;align=center;verticalAlign=middle;whiteSpace=wrap;rounded=0;" vertex="1" parent="WIyWlLk6GJQsqaUBKTNV-1">
          <mxGeometry x="880" y="270" width="80" height="30" as="geometry" />
        </mxCell>
        <mxCell id="PJY2y0bwhQxhffVgpyWu-114" value="" style="edgeStyle=orthogonalEdgeStyle;rounded=0;orthogonalLoop=1;jettySize=auto;html=1;" edge="1" parent="WIyWlLk6GJQsqaUBKTNV-1" source="PJY2y0bwhQxhffVgpyWu-111" target="PJY2y0bwhQxhffVgpyWu-113">
          <mxGeometry relative="1" as="geometry" />
        </mxCell>
        <mxCell id="PJY2y0bwhQxhffVgpyWu-111" value="指标合并" style="whiteSpace=wrap;html=1;rounded=0;" vertex="1" parent="WIyWlLk6GJQsqaUBKTNV-1">
          <mxGeometry x="860" y="517" width="120" height="60" as="geometry" />
        </mxCell>
        <mxCell id="PJY2y0bwhQxhffVgpyWu-112" value="" style="edgeStyle=orthogonalEdgeStyle;rounded=0;orthogonalLoop=1;jettySize=auto;html=1;" edge="1" parent="WIyWlLk6GJQsqaUBKTNV-1" source="PJY2y0bwhQxhffVgpyWu-106" target="PJY2y0bwhQxhffVgpyWu-111">
          <mxGeometry relative="1" as="geometry" />
        </mxCell>
        <mxCell id="PJY2y0bwhQxhffVgpyWu-113" value="push到zhiyi平台" style="whiteSpace=wrap;html=1;rounded=0;" vertex="1" parent="WIyWlLk6GJQsqaUBKTNV-1">
          <mxGeometry x="1121" y="517" width="120" height="60" as="geometry" />
        </mxCell>
      </root>
    </mxGraphModel>
  </diagram>
</mxfile>
